<svg version="1.1" id="Layer_1" xmlns="http://www.w3.org/2000/svg" xmlns:xlink="http://www.w3.org/1999/xlink" x="0px" y="0px"
	 width="100%" viewBox="0 0 1024 1024" enable-background="new 0 0 1024 1024" xml:space="preserve">
<path fill="#000000" opacity="1.000000" stroke="none" 
	d="
M197.493744,597.366943 
	C191.184875,565.734497 189.479446,534.334045 192.455734,502.579742 
	C195.475235,470.364380 202.643051,439.186737 214.638199,409.208496 
	C244.530716,334.501160 294.650391,277.359161 364.844421,237.983841 
	C404.422882,215.782333 446.901184,202.240509 492.021271,197.663773 
	C585.309082,188.201157 669.158203,212.545837 742.100159,271.264648 
	C803.105896,320.374695 841.772339,384.105072 858.966553,460.656586 
	C864.343750,484.596710 867.368530,508.914001 866.966064,533.388794 
	C865.732483,608.399597 843.478638,676.535889 797.817688,736.427124 
	C753.384949,794.707458 695.733459,834.179932 625.640930,855.471619 
	C586.997986,867.210022 547.401062,871.636780 507.198425,868.992615 
	C466.336212,866.304993 426.975433,856.771851 389.692139,839.525696 
	C307.628845,801.565674 249.506485,740.654602 215.121948,657.041077 
	C207.242279,637.880005 201.802780,618.015198 197.493744,597.366943 
M549.151978,367.895905 
	C555.107971,369.730896 559.995789,373.463196 564.968811,377.255371 
	C569.088135,373.115723 573.171631,369.471191 577.890930,366.591217 
	C596.347778,355.328003 620.164673,364.370331 626.212341,385.053345 
	C626.872131,387.309692 627.411743,388.328979 630.200073,388.019653 
	C647.954956,386.049866 663.314209,394.744934 671.162598,411.063721 
	C674.164612,417.305542 675.981018,423.981232 674.923096,430.889160 
	C672.840454,444.487610 664.671326,452.689178 650.913330,455.459747 
	C647.159424,456.215729 644.682190,457.816376 643.455994,461.701447 
	C639.355652,474.693024 635.005249,487.605682 630.614075,500.963928 
	C636.896057,500.918488 642.519409,499.373413 648.139771,498.162109 
	C663.077759,494.942688 677.935608,491.127716 693.217224,490.118958 
	C700.415527,489.643738 707.677124,487.354919 714.982971,490.020752 
	C730.544434,495.699066 737.414795,506.673645 739.195374,525.573425 
	C739.694031,530.866577 739.727600,536.243652 740.804260,541.441895 
	C745.330566,563.295410 747.271729,585.512268 750.317932,607.572083 
	C750.951050,612.156921 752.309570,615.925720 755.960632,619.233093 
	C770.777161,632.654724 785.248840,646.456177 799.981262,659.971924 
	C804.581360,664.192139 809.602051,667.953979 814.235291,671.765320 
	C816.442078,670.292419 816.978821,668.660461 817.668457,667.182983 
	C835.625549,628.711304 845.652283,588.245728 847.553711,545.853271 
	C848.691528,520.487366 846.792419,495.296936 841.627258,470.382050 
	C829.579529,412.267853 804.085205,360.905640 763.591064,317.443817 
	C710.728577,260.707214 645.570496,227.188690 568.647827,217.239410 
	C529.495972,212.175461 490.581299,214.334518 452.152893,223.974609 
	C406.698639,235.377197 365.589417,255.543320 329.097595,284.899597 
	C297.207001,310.554352 271.105133,341.195618 251.069901,376.979614 
	C230.392197,413.911133 217.236160,453.268799 212.531448,495.355286 
	C210.662460,512.074524 209.387192,528.866699 210.717224,545.702393 
	C211.247696,552.417175 212.088440,552.777832 218.484894,550.398560 
	C229.721603,546.218994 240.755005,541.411316 252.172684,537.816772 
	C275.516998,530.467346 298.871857,523.162842 322.061371,515.334045 
	C324.803314,514.408325 327.213928,513.126160 329.319000,511.122253 
	C345.373871,495.838837 360.985809,480.123779 376.012024,463.822113 
	C394.958130,443.267914 415.974335,425.160583 439.708344,410.281097 
	C443.606750,407.837067 447.652252,406.716217 452.058319,408.174805 
	C460.682831,411.029938 468.506531,415.215240 475.207306,421.565704 
	C486.609619,432.371857 496.055054,444.933899 506.893555,456.233429 
	C508.919434,458.345551 510.648956,460.859802 513.856873,462.325256 
	C516.766785,453.910645 518.309570,445.418121 520.692932,437.166779 
	C521.977722,432.718933 521.024475,430.325500 516.862366,428.007233 
	C508.472687,423.334137 502.229858,416.391968 501.973297,406.334045 
	C501.469238,386.573669 518.676575,360.540710 549.151978,367.895905 
M553.569397,380.844971 
	C536.817078,370.265350 519.950745,380.470856 513.848083,394.954834 
	C509.322754,405.695282 514.083130,416.311127 524.983948,420.564636 
	C531.651428,423.166321 533.419983,426.511444 531.861816,433.631500 
	C530.867859,438.173553 530.026428,442.759918 528.777466,447.231720 
	C527.815796,450.675110 528.892090,452.566498 532.126099,453.769531 
	C538.985474,456.321075 545.644592,459.520874 552.646484,461.559479 
	C575.885071,468.325226 598.573120,477.495575 623.272217,478.191803 
	C626.081421,478.270996 627.556580,477.793060 628.423340,475.035126 
	C630.218384,469.323700 632.251648,463.686646 634.218628,458.030060 
	C634.611572,456.900055 634.788147,455.815582 634.488037,454.622925 
	C632.531189,446.847076 633.665344,445.539642 641.514648,446.447479 
	C655.453613,448.059631 667.786133,434.912689 664.830933,421.810730 
	C661.852905,408.607635 651.460266,403.362915 640.429321,399.130676 
	C633.441223,396.449524 628.738586,398.750122 624.955017,405.210449 
	C622.680969,409.093475 620.324158,412.950928 617.149658,416.159424 
	C615.116577,418.214294 612.538574,419.070648 609.989624,416.962250 
	C607.418945,414.835876 607.849426,412.360596 609.614380,409.885162 
	C611.159485,407.717957 612.783936,405.594269 614.161133,403.322723 
	C618.954834,395.415588 618.724426,387.757751 613.611389,380.985931 
	C608.151428,373.754608 597.745422,369.897034 589.764832,372.145813 
	C577.680786,375.550842 568.013184,387.420227 567.257812,399.908020 
	C567.067078,403.061829 566.064026,405.757812 562.653381,405.999237 
	C559.089050,406.251587 558.134583,403.385101 557.454712,400.432648 
	C556.678162,397.060181 557.047546,393.635040 557.946899,390.547424 
	C559.244202,386.094086 557.380676,383.559479 553.569397,380.844971 
M683.499512,575.994080 
	C695.052368,584.975281 706.576721,593.993774 718.193909,602.890991 
	C719.653870,604.009155 721.382812,605.941772 723.501038,604.472778 
	C725.627197,602.998291 725.671143,600.792358 725.196411,598.219666 
	C722.363281,582.865601 720.065552,567.440918 718.427429,551.892090 
	C717.143372,539.704285 715.109497,527.553223 711.399170,515.793213 
	C708.595642,506.907471 703.393005,503.589233 694.303650,505.424591 
	C672.975159,509.731384 651.506592,513.468262 630.807251,520.469482 
	C623.551758,522.923584 622.530334,526.477295 627.833801,531.854309 
	C629.118408,533.156738 630.403687,534.484497 631.839478,535.607910 
	C648.867493,548.931335 665.924072,562.218140 683.499512,575.994080 
M425.613129,450.108368 
	C421.403442,453.621674 417.213196,457.158600 412.980408,460.643860 
	C400.138550,471.217834 388.318359,482.922302 376.020996,494.097504 
	C371.499817,498.206055 366.602814,502.122375 364.207825,508.077911 
	C363.437073,509.994507 362.947845,511.879578 364.652069,513.639160 
	C366.202209,515.239685 367.983429,514.859619 369.761475,514.323486 
	C371.669891,513.747986 373.548767,513.071960 375.430664,512.411621 
	C387.653931,508.122742 399.761444,503.348236 412.513367,500.893127 
	C434.160522,496.725372 455.796082,492.519592 477.287872,487.609161 
	C485.221619,485.796417 486.928650,481.497406 481.832550,475.176422 
	C476.102997,468.069733 469.951080,461.292389 463.787811,454.550079 
	C459.072357,449.391632 453.922638,444.668701 448.165833,440.636444 
	C444.747864,438.242371 441.607483,437.984497 438.182373,440.746643 
	C434.302734,443.875366 430.181793,446.704834 425.613129,450.108368 
M527.297913,463.889862 
	C522.712646,465.031982 524.254517,469.230438 523.630432,472.047058 
	C523.009521,474.849121 525.968567,475.754303 528.206604,476.366669 
	C537.826660,478.999084 547.445190,481.648071 557.121826,484.060486 
	C576.140686,488.802032 595.204773,493.352936 613.870972,499.413483 
	C615.766602,500.028992 618.558411,502.164459 620.068054,499.101227 
	C621.464966,496.266876 623.372253,493.354095 622.691711,489.490326 
	C617.023315,488.521454 611.462524,487.658630 605.936768,486.611603 
	C579.243591,481.553802 553.392639,473.569427 527.297913,463.889862 
M447.765656,668.994873 
	C441.774078,667.894897 438.189636,664.036926 435.865112,658.685547 
	C435.206635,657.169617 434.546661,655.605957 433.588898,654.279785 
	C432.169434,652.314148 430.057709,651.688843 427.827850,652.665588 
	C425.382935,653.736450 424.574402,655.829468 425.036682,658.429688 
	C426.767578,668.165649 435.542999,676.600464 445.319855,678.931274 
	C449.828339,680.005981 453.751190,678.162354 458.034637,677.812988 
	C459.139893,679.885620 460.168762,681.775391 461.161469,683.684021 
	C463.929260,689.005310 467.969299,692.956848 474.095612,693.533386 
	C483.707092,694.437805 491.632996,690.694641 498.017700,683.562866 
	C499.945801,681.409180 500.343445,679.103943 498.206879,676.904297 
	C495.988525,674.620483 493.503967,674.678101 491.070312,676.631348 
	C489.385681,677.983398 487.955017,679.775818 486.087555,680.754517 
	C478.313019,684.828796 472.107239,685.389160 468.562469,675.640991 
	C467.766785,673.452881 466.922119,671.280823 466.192810,669.070740 
	C464.052338,662.584167 460.446838,661.526672 455.105042,665.974060 
	C453.157440,667.595520 451.329620,669.282288 447.765656,668.994873 
M554.991760,656.750916 
	C553.401245,661.438354 553.821289,665.819641 558.221924,668.615601 
	C561.851318,670.921387 565.886902,670.616516 569.339355,667.827209 
	C573.431152,664.521301 573.617004,658.279541 569.898499,654.607300 
	C565.397156,650.161926 560.075806,650.695862 554.991760,656.750916 
M403.101105,595.455322 
	C395.807312,598.666260 393.512146,605.978882 398.376099,610.827942 
	C401.534241,613.976501 405.319153,614.730164 409.321106,612.569275 
	C413.591125,610.263733 414.807739,606.356323 413.672607,601.931152 
	C412.417023,597.036194 408.740601,595.146545 403.101105,595.455322 
z"/>
</svg>